<?xml version="1.0" encoding="UTF-8" standalone="no" ?>
<!DOCTYPE svg PUBLIC "-//W3C//DTD SVG 1.1//EN" "http://www.w3.org/Graphics/SVG/1.1/DTD/svg11.dtd">
<svg xmlns="http://www.w3.org/2000/svg" xmlns:xlink="http://www.w3.org/1999/xlink" version="1.1" width="300" height="300" viewBox="0 0 300 300" xml:space="preserve">
<desc>Sdelano: LOGOZA.RU</desc>
<defs>

                <style type="text/css">
                    @import url(http://fonts.googleapis.com/css?family=Open+Sans:100,100i,200,200i,300,300i,400,400i,500,500i,600,600i,700,700i,800,800i,900,900i)
                </style>
            
                <style type="text/css">
                    @import url(http://fonts.googleapis.com/css?family=Open+Sans:100,100i,200,200i,300,300i,400,400i,500,500i,600,600i,700,700i,800,800i,900,900i)
                </style>
            
</defs>
<!--<rect x="0" y="0" width="100%" height="100%" fill="#ffffff"></rect>-->
<g transform="matrix(1 0 0 1 150 150)"  >
<g style=""   >
		<g transform="matrix(0.51 0 0 0.51 0 0)"  >
<filter id="SVGID_2377" y="-20%" height="140%" x="-20%" width="140%" >
	<feGaussianBlur in="SourceAlpha" stdDeviation="0"></feGaussianBlur>
	<feOffset dx="0" dy="0" result="oBlur" ></feOffset>
	<feFlood flood-color="rgb(0,0,0)" flood-opacity="1"/>
	<feComposite in2="oBlur" operator="in" />
	<feMerge>
		<feMergeNode></feMergeNode>
		<feMergeNode in="SourceGraphic"></feMergeNode>
	</feMerge>
</filter>
<g style="filter: url(#SVGID_2377);"   >
		<g transform="matrix(1 0 0 1 0 0)" id="Capa_1"  >
<circle style="stroke: none; stroke-width: 1; stroke-dasharray: none; stroke-linecap: butt; stroke-dashoffset: 0; stroke-linejoin: miter; stroke-miterlimit: 4; fill: rgb(239,200,74); fill-rule: nonzero; opacity: 1;"  cx="0" cy="0" r="245.76" />
</g>
		<g transform="matrix(1 0 0 1 -91.52 -28.23)" id="Capa_1"  >
<path style="stroke: none; stroke-width: 1; stroke-dasharray: none; stroke-linecap: butt; stroke-dashoffset: 0; stroke-linejoin: miter; stroke-miterlimit: 4; fill: rgb(34,34,34); fill-rule: nonzero; opacity: 1;"  transform=" translate(-154.24, -217.53)" d="M 171.912 241.018 c 0.654 0 1.32 -0.146 1.948 -0.456 c 2.18 -1.077 3.078 -3.719 1.999 -5.901 l -11.349 -23.004 c -0.358 -0.728 -0.909 -1.341 -1.595 -1.776 l -23.984 -15.165 c -2.057 -1.299 -4.78 -0.687 -6.079 1.37 c -1.303 2.057 -0.689 4.78 1.369 6.081 l 22.936 14.5 l 10.801 21.892 C 168.725 240.116 170.289 241.018 171.912 241.018 z" stroke-linecap="round" />
</g>
		<g transform="matrix(1 0 0 1 -104.6 41.17)" id="Capa_1"  >
<path style="stroke: none; stroke-width: 1; stroke-dasharray: none; stroke-linecap: butt; stroke-dashoffset: 0; stroke-linejoin: miter; stroke-miterlimit: 4; fill: rgb(34,34,34); fill-rule: nonzero; opacity: 1;"  transform=" translate(-141.16, -286.93)" d="M 141.161 296.05 c 0.628 0 1.253 -0.135 1.83 -0.397 l 20.633 -9.42 c 2.214 -1.011 3.19 -3.625 2.177 -5.839 c -1.01 -2.212 -3.617 -3.183 -5.838 -2.179 l -19.448 8.881 l -19.344 -2.846 c -2.416 -0.376 -4.647 1.31 -5.003 3.718 c -0.353 2.407 1.311 4.646 3.718 5 l 20.633 3.035 C 140.734 296.034 140.946 296.05 141.161 296.05 z" stroke-linecap="round" />
</g>
		<g transform="matrix(1 0 0 1 -87 108.74)" id="Capa_1"  >
<path style="stroke: none; stroke-width: 1; stroke-dasharray: none; stroke-linecap: butt; stroke-dashoffset: 0; stroke-linejoin: miter; stroke-miterlimit: 4; fill: rgb(34,34,34); fill-rule: nonzero; opacity: 1;"  transform=" translate(-158.76, -354.5)" d="M 144.188 383.15 c 1.087 0 2.178 -0.4 3.029 -1.206 c 2.602 -2.461 10.692 -8.849 16.826 -8.849 c 1.382 0 2.685 -0.648 3.517 -1.753 c 0.835 -1.105 1.099 -2.535 0.72 -3.865 c -0.072 -0.249 -7.057 -25.614 7.152 -33.347 c 2.138 -1.163 2.929 -3.838 1.764 -5.976 c -1.159 -2.138 -3.841 -2.928 -5.976 -1.764 c -15.799 8.596 -14.201 29.179 -12.499 38.642 c -8.781 2.364 -16.562 9.559 -17.574 10.521 c -1.761 1.675 -1.83 4.46 -0.158 6.224 C 141.856 382.689 143.021 383.15 144.188 383.15 z" stroke-linecap="round" />
</g>
		<g transform="matrix(1 0 0 1 91.52 -28.23)" id="Capa_1"  >
<path style="stroke: none; stroke-width: 1; stroke-dasharray: none; stroke-linecap: butt; stroke-dashoffset: 0; stroke-linejoin: miter; stroke-miterlimit: 4; fill: rgb(34,34,34); fill-rule: nonzero; opacity: 1;"  transform=" translate(-337.28, -217.53)" d="M 319.608 241.018 c -0.654 0 -1.32 -0.146 -1.948 -0.456 c -2.18 -1.077 -3.078 -3.719 -1.999 -5.901 l 11.349 -23.004 c 0.358 -0.728 0.909 -1.341 1.595 -1.776 l 23.984 -15.165 c 2.057 -1.299 4.78 -0.687 6.079 1.37 c 1.302 2.057 0.689 4.78 -1.369 6.081 l -22.936 14.5 l -10.801 21.892 C 322.795 240.116 321.231 241.018 319.608 241.018 z" stroke-linecap="round" />
</g>
		<g transform="matrix(1 0 0 1 104.6 41.17)" id="Capa_1"  >
<path style="stroke: none; stroke-width: 1; stroke-dasharray: none; stroke-linecap: butt; stroke-dashoffset: 0; stroke-linejoin: miter; stroke-miterlimit: 4; fill: rgb(34,34,34); fill-rule: nonzero; opacity: 1;"  transform=" translate(-350.36, -286.93)" d="M 350.359 296.05 c -0.628 0 -1.253 -0.135 -1.83 -0.397 l -20.633 -9.42 c -2.214 -1.011 -3.19 -3.625 -2.177 -5.839 c 1.01 -2.212 3.617 -3.183 5.838 -2.179 l 19.448 8.881 l 19.344 -2.846 c 2.416 -0.376 4.647 1.31 5.003 3.718 c 0.353 2.407 -1.311 4.646 -3.718 5 l -20.633 3.035 C 350.786 296.034 350.574 296.05 350.359 296.05 z" stroke-linecap="round" />
</g>
		<g transform="matrix(1 0 0 1 87 108.74)" id="Capa_1"  >
<path style="stroke: none; stroke-width: 1; stroke-dasharray: none; stroke-linecap: butt; stroke-dashoffset: 0; stroke-linejoin: miter; stroke-miterlimit: 4; fill: rgb(34,34,34); fill-rule: nonzero; opacity: 1;"  transform=" translate(-332.76, -354.5)" d="M 347.332 383.15 c -1.087 0 -2.178 -0.4 -3.03 -1.206 c -2.602 -2.461 -10.692 -8.849 -16.826 -8.849 c -1.382 0 -2.685 -0.648 -3.517 -1.753 c -0.835 -1.105 -1.099 -2.535 -0.72 -3.865 c 0.072 -0.249 7.057 -25.614 -7.152 -33.347 c -2.138 -1.163 -2.929 -3.838 -1.764 -5.976 c 1.159 -2.138 3.841 -2.928 5.976 -1.764 c 15.799 8.596 14.201 29.179 12.499 38.642 c 8.781 2.364 16.562 9.559 17.574 10.521 c 1.761 1.675 1.83 4.46 0.158 6.224 C 349.664 382.689 348.499 383.15 347.332 383.15 z" stroke-linecap="round" />
</g>
		<g transform="matrix(1 0 0 1 36.69 -112.35)" id="Capa_1"  >
<path style="stroke: none; stroke-width: 1; stroke-dasharray: none; stroke-linecap: butt; stroke-dashoffset: 0; stroke-linejoin: miter; stroke-miterlimit: 4; fill: rgb(34,34,34); fill-rule: nonzero; opacity: 1;"  transform=" translate(-282.45, -133.41)" d="M 264.238 161.851 c -0.043 0 -0.083 -0.002 -0.123 -0.002 c -2.433 -0.068 -4.349 -2.087 -4.283 -4.518 c 0.428 -16.321 9.39 -48.262 40.247 -52.333 c 2.413 -0.314 4.627 1.38 4.946 3.793 c 0.318 2.413 -1.38 4.627 -3.793 4.945 c -31.08 4.098 -32.544 42.212 -32.592 43.833 C 268.57 159.957 266.613 161.851 264.238 161.851 z" stroke-linecap="round" />
</g>
		<g transform="matrix(1 0 0 1 -35.71 -112.35)" id="Capa_1"  >
<path style="stroke: none; stroke-width: 1; stroke-dasharray: none; stroke-linecap: butt; stroke-dashoffset: 0; stroke-linejoin: miter; stroke-miterlimit: 4; fill: rgb(34,34,34); fill-rule: nonzero; opacity: 1;"  transform=" translate(-210.05, -133.41)" d="M 228.257 161.853 c -2.378 0 -4.335 -1.895 -4.401 -4.284 l 0 0 c -0.049 -1.621 -1.509 -39.735 -32.59 -43.833 c -2.413 -0.318 -4.111 -2.533 -3.792 -4.945 c 0.318 -2.412 2.542 -4.108 4.945 -3.793 c 30.857 4.071 39.819 36.013 40.244 52.335 c 0.066 2.433 -1.856 4.456 -4.288 4.519 C 228.337 161.853 228.297 161.853 228.257 161.853 z" stroke-linecap="round" />
</g>
		<g transform="matrix(1 0 0 1 0.49 49.55)" id="Capa_1"  >
<path style="stroke: none; stroke-width: 1; stroke-dasharray: none; stroke-linecap: butt; stroke-dashoffset: 0; stroke-linejoin: miter; stroke-miterlimit: 4; fill: rgb(226,34,17); fill-rule: nonzero; opacity: 1;"  transform=" translate(-246.25, -295.31)" d="M 177.446 204.059 c -12.158 19.235 -19.449 43.658 -19.449 70.259 c 0 61.99 39.511 112.242 88.252 112.242 c 48.739 0 88.25 -50.252 88.25 -112.242 c 0 -26.601 -7.291 -51.024 -19.449 -70.259 H 177.446 z" stroke-linecap="round" />
</g>
		<g transform="matrix(1 0 0 1 0.49 -69.81)" id="Capa_1"  >
<path style="stroke: none; stroke-width: 1; stroke-dasharray: none; stroke-linecap: butt; stroke-dashoffset: 0; stroke-linejoin: miter; stroke-miterlimit: 4; fill: rgb(51,51,51); fill-rule: nonzero; opacity: 1;"  transform=" translate(-246.25, -175.95)" d="M 246.249 147.832 c -27.826 0 -52.628 21.956 -68.803 56.227 H 315.05 C 298.875 169.788 274.074 147.832 246.249 147.832 z" stroke-linecap="round" />
</g>
		<g transform="matrix(1 0 0 1 0.49 70.92)" id="Capa_1"  >
<path style="stroke: none; stroke-width: 1; stroke-dasharray: none; stroke-linecap: butt; stroke-dashoffset: 0; stroke-linejoin: miter; stroke-miterlimit: 4; fill: rgb(51,51,51); fill-rule: nonzero; opacity: 1;"  transform=" translate(-246.25, -316.68)" d="M 236.887 385.926 c 3.077 0.413 6.199 0.634 9.362 0.634 c 3.163 0 6.284 -0.221 9.361 -0.634 l -9.361 -139.136 L 236.887 385.926 z" stroke-linecap="round" />
</g>
		<g transform="matrix(1 0 0 1 44.97 -19.81)" id="Capa_1"  >
<circle style="stroke: none; stroke-width: 1; stroke-dasharray: none; stroke-linecap: butt; stroke-dashoffset: 0; stroke-linejoin: miter; stroke-miterlimit: 4; fill: rgb(51,51,51); fill-rule: nonzero; opacity: 1;"  cx="0" cy="0" r="2.862" />
</g>
		<g transform="matrix(1 0 0 1 30.07 40.12)" id="Capa_1"  >
<circle style="stroke: none; stroke-width: 1; stroke-dasharray: none; stroke-linecap: butt; stroke-dashoffset: 0; stroke-linejoin: miter; stroke-miterlimit: 4; fill: rgb(51,51,51); fill-rule: nonzero; opacity: 1;"  cx="0" cy="0" r="5.54" />
</g>
		<g transform="matrix(1 0 0 1 69.43 19.5)" id="Capa_1"  >
<circle style="stroke: none; stroke-width: 1; stroke-dasharray: none; stroke-linecap: butt; stroke-dashoffset: 0; stroke-linejoin: miter; stroke-miterlimit: 4; fill: rgb(51,51,51); fill-rule: nonzero; opacity: 1;"  cx="0" cy="0" r="5.919" />
</g>
		<g transform="matrix(1 0 0 1 47.62 79.46)" id="Capa_1"  >
<circle style="stroke: none; stroke-width: 1; stroke-dasharray: none; stroke-linecap: butt; stroke-dashoffset: 0; stroke-linejoin: miter; stroke-miterlimit: 4; fill: rgb(51,51,51); fill-rule: nonzero; opacity: 1;"  cx="0" cy="0" r="8.566" />
</g>
		<g transform="matrix(1 0 0 1 -47.45 67.99)" id="Capa_1"  >
<circle style="stroke: none; stroke-width: 1; stroke-dasharray: none; stroke-linecap: butt; stroke-dashoffset: 0; stroke-linejoin: miter; stroke-miterlimit: 4; fill: rgb(51,51,51); fill-rule: nonzero; opacity: 1;"  cx="0" cy="0" r="4.772" />
</g>
		<g transform="matrix(1 0 0 1 -65.23 24.27)" id="Capa_1"  >
<circle style="stroke: none; stroke-width: 1; stroke-dasharray: none; stroke-linecap: butt; stroke-dashoffset: 0; stroke-linejoin: miter; stroke-miterlimit: 4; fill: rgb(51,51,51); fill-rule: nonzero; opacity: 1;"  cx="0" cy="0" r="8.018" />
</g>
		<g transform="matrix(1 0 0 1 -35.02 -18.12)" id="Capa_1"  >
<circle style="stroke: none; stroke-width: 1; stroke-dasharray: none; stroke-linecap: butt; stroke-dashoffset: 0; stroke-linejoin: miter; stroke-miterlimit: 4; fill: rgb(51,51,51); fill-rule: nonzero; opacity: 1;"  cx="0" cy="0" r="4.582" />
</g>
		<g transform="matrix(1 0 0 1 -24.83 25.13)" id="Capa_1"  >
<circle style="stroke: none; stroke-width: 1; stroke-dasharray: none; stroke-linecap: butt; stroke-dashoffset: 0; stroke-linejoin: miter; stroke-miterlimit: 4; fill: rgb(51,51,51); fill-rule: nonzero; opacity: 1;"  cx="0" cy="0" r="5.632" />
</g>
		<g transform="matrix(1 0 0 1 11.62 -16.97)" id="Capa_1"  >
<circle style="stroke: none; stroke-width: 1; stroke-dasharray: none; stroke-linecap: butt; stroke-dashoffset: 0; stroke-linejoin: miter; stroke-miterlimit: 4; fill: rgb(51,51,51); fill-rule: nonzero; opacity: 1;"  cx="0" cy="0" r="5.632" />
</g>
		<g transform="matrix(1 0 0 1 -39.53 101.12)" id="Capa_1"  >
<circle style="stroke: none; stroke-width: 1; stroke-dasharray: none; stroke-linecap: butt; stroke-dashoffset: 0; stroke-linejoin: miter; stroke-miterlimit: 4; fill: rgb(51,51,51); fill-rule: nonzero; opacity: 1;"  cx="0" cy="0" r="5.443" />
</g>
		<g transform="matrix(1 0 0 1 -25.5 -69.68)" id="Capa_1"  >
<circle style="stroke: none; stroke-width: 1; stroke-dasharray: none; stroke-linecap: butt; stroke-dashoffset: 0; stroke-linejoin: miter; stroke-miterlimit: 4; fill: rgb(34,34,34); fill-rule: nonzero; opacity: 1;"  cx="0" cy="0" r="9.656" />
</g>
		<g transform="matrix(1 0 0 1 -25.5 -69.68)" id="Capa_1"  >
<circle style="stroke: none; stroke-width: 1; stroke-dasharray: none; stroke-linecap: butt; stroke-dashoffset: 0; stroke-linejoin: miter; stroke-miterlimit: 4; fill: rgb(255,255,255); fill-rule: nonzero; opacity: 1;"  cx="0" cy="0" r="5.878" />
</g>
		<g transform="matrix(1 0 0 1 26.47 -69.68)" id="Capa_1"  >
<circle style="stroke: none; stroke-width: 1; stroke-dasharray: none; stroke-linecap: butt; stroke-dashoffset: 0; stroke-linejoin: miter; stroke-miterlimit: 4; fill: rgb(34,34,34); fill-rule: nonzero; opacity: 1;"  cx="0" cy="0" r="9.656" />
</g>
		<g transform="matrix(1 0 0 1 26.47 -69.68)" id="Capa_1"  >
<circle style="stroke: none; stroke-width: 1; stroke-dasharray: none; stroke-linecap: butt; stroke-dashoffset: 0; stroke-linejoin: miter; stroke-miterlimit: 4; fill: rgb(255,255,255); fill-rule: nonzero; opacity: 1;"  cx="0" cy="0" r="5.878" />
</g>
</g>
</g>
		<g transform="matrix(1 0 0 1 -109 0)" style="filter: url(#SVGID_2378);"  >
<filter id="SVGID_2378" y="-20%" height="140%" x="-20%" width="140%" >
	<feGaussianBlur in="SourceAlpha" stdDeviation="0"></feGaussianBlur>
	<feOffset dx="0" dy="0" result="oBlur" ></feOffset>
	<feFlood flood-color="rgb(0,0,0)" flood-opacity="1"/>
	<feComposite in2="oBlur" operator="in" />
	<feMerge>
		<feMergeNode></feMergeNode>
		<feMergeNode in="SourceGraphic"></feMergeNode>
	</feMerge>
</filter>
		<text xml:space="preserve" font-family="Open Sans" font-size="48" font-style="normal" font-weight="700" style="stroke: rgb(0,0,0); stroke-width: 0; stroke-dasharray: none; stroke-linecap: butt; stroke-dashoffset: 0; stroke-linejoin: round; stroke-miterlimit: 4; fill: rgb(0,0,0); fill-rule: nonzero; opacity: 1; white-space: pre;" paint-order="stroke"  ></text>
</g>
</g>
</g>
</svg>