<?xml version="1.0" encoding="UTF-8" standalone="no" ?>
<!DOCTYPE svg PUBLIC "-//W3C//DTD SVG 1.1//EN" "http://www.w3.org/Graphics/SVG/1.1/DTD/svg11.dtd">
<svg xmlns="http://www.w3.org/2000/svg" xmlns:xlink="http://www.w3.org/1999/xlink" version="1.1" width="300" height="300" viewBox="0 0 300 300" xml:space="preserve">
<desc>Sdelano: LOGOZA.RU</desc>
<defs>

                <style type="text/css">
                    @import url(http://fonts.googleapis.com/css?family=Open+Sans:100,100i,200,200i,300,300i,400,400i,500,500i,600,600i,700,700i,800,800i,900,900i)
                </style>
            
                <style type="text/css">
                    @import url(http://fonts.googleapis.com/css?family=Open+Sans:100,100i,200,200i,300,300i,400,400i,500,500i,600,600i,700,700i,800,800i,900,900i)
                </style>
            
</defs>
<!--<rect x="0" y="0" width="100%" height="100%" fill="#ffffff"></rect>-->
<g transform="matrix(1 0 0 1 150 150)"  >
<g style=""   >
		<g transform="matrix(0.51 0 0 0.51 0 0)"  >
<filter id="SVGID_6002" y="-20%" height="140%" x="-20%" width="140%" >
	<feGaussianBlur in="SourceAlpha" stdDeviation="0"></feGaussianBlur>
	<feOffset dx="0" dy="0" result="oBlur" ></feOffset>
	<feFlood flood-color="rgb(0,0,0)" flood-opacity="1"/>
	<feComposite in2="oBlur" operator="in" />
	<feMerge>
		<feMergeNode></feMergeNode>
		<feMergeNode in="SourceGraphic"></feMergeNode>
	</feMerge>
</filter>
<g style="filter: url(#SVGID_6002);"   >
		<g transform="matrix(1 0 0 1 0 0)" id="Capa_1"  >
<!--<circle style="stroke: none; stroke-width: 1; stroke-dasharray: none; stroke-linecap: butt; stroke-dashoffset: 0; stroke-linejoin: miter; stroke-miterlimit: 4; fill: rgb(254,198,6); fill-rule: nonzero; opacity: 1;"  cx="0" cy="0" r="245.76" />-->
</g>
		<g transform="matrix(1 0 0 1 90.73 57.21)" id="Capa_1"  >
<polygon style="stroke: none; stroke-width: 1; stroke-dasharray: none; stroke-linecap: butt; stroke-dashoffset: 0; stroke-linejoin: miter; stroke-miterlimit: 4; fill: rgb(255,255,255); fill-rule: nonzero; opacity: 1;"  points="6.72,6.72 -6.72,6.72 -6.72,-2.24 -2.24,-2.24 -2.24,-6.72 6.72,-6.72 " />
</g>
		<g transform="matrix(1 0 0 1 -21.68 59.45)" id="Capa_1"  >
<path style="stroke: none; stroke-width: 1; stroke-dasharray: none; stroke-linecap: butt; stroke-dashoffset: 0; stroke-linejoin: miter; stroke-miterlimit: 4; fill: rgb(255,255,255); fill-rule: nonzero; opacity: 1;"  transform=" translate(-224.08, -305.21)" d="M 310.551 309.687 h -19.215 v -8.962 h 19.215 V 309.687 z M 272.121 309.687 h -19.215 v -8.962 h 19.215 V 309.687 z M 233.691 309.687 h -19.214 v -8.962 h 19.214 V 309.687 z M 195.262 309.687 h -19.215 v -8.962 h 19.215 V 309.687 z M 156.828 309.687 h -19.215 v -8.962 h 19.215 V 309.687 z" stroke-linecap="round" />
</g>
		<g transform="matrix(1 0 0 1 -134.08 57.21)" id="Capa_1"  >
<polygon style="stroke: none; stroke-width: 1; stroke-dasharray: none; stroke-linecap: butt; stroke-dashoffset: 0; stroke-linejoin: miter; stroke-miterlimit: 4; fill: rgb(255,255,255); fill-rule: nonzero; opacity: 1;"  points="6.72,6.72 -6.72,6.72 -6.72,-6.72 2.24,-6.72 2.24,-2.24 6.72,-2.24 " />
</g>
		<g transform="matrix(1 0 0 1 -136.32 -21.68)" id="Capa_1"  >
<path style="stroke: none; stroke-width: 1; stroke-dasharray: none; stroke-linecap: butt; stroke-dashoffset: 0; stroke-linejoin: miter; stroke-miterlimit: 4; fill: rgb(255,255,255); fill-rule: nonzero; opacity: 1;"  transform=" translate(-109.44, -224.08)" d="M 113.922 280.208 h -8.962 v -16.036 h 8.962 V 280.208 z M 113.922 248.137 h -8.962 v -16.036 h 8.962 V 248.137 z M 113.922 216.066 h -8.962 V 200.03 h 8.962 V 216.066 z M 113.922 183.997 h -8.962 v -16.036 h 8.962 V 183.997 z" stroke-linecap="round" />
</g>
		<g transform="matrix(1 0 0 1 -134.08 -100.56)" id="Capa_1"  >
<polygon style="stroke: none; stroke-width: 1; stroke-dasharray: none; stroke-linecap: butt; stroke-dashoffset: 0; stroke-linejoin: miter; stroke-miterlimit: 4; fill: rgb(255,255,255); fill-rule: nonzero; opacity: 1;"  points="2.24,6.72 -6.72,6.72 -6.72,-6.72 6.72,-6.72 6.72,2.24 2.24,2.24 " />
</g>
		<g transform="matrix(1 0 0 1 -21.67 -102.8)" id="Capa_1"  >
<path style="stroke: none; stroke-width: 1; stroke-dasharray: none; stroke-linecap: butt; stroke-dashoffset: 0; stroke-linejoin: miter; stroke-miterlimit: 4; fill: rgb(255,255,255); fill-rule: nonzero; opacity: 1;"  transform=" translate(-224.09, -142.96)" d="M 310.555 147.445 H 291.34 v -8.962 h 19.215 V 147.445 z M 272.121 147.445 h -19.215 v -8.962 h 19.215 V 147.445 z M 233.691 147.445 h -19.214 v -8.962 h 19.214 V 147.445 z M 195.262 147.445 h -19.215 v -8.962 h 19.215 V 147.445 z M 156.832 147.445 h -19.215 v -8.962 h 19.215 V 147.445 z" stroke-linecap="round" />
</g>
		<g transform="matrix(1 0 0 1 90.73 -100.56)" id="Capa_1"  >
<polygon style="stroke: none; stroke-width: 1; stroke-dasharray: none; stroke-linecap: butt; stroke-dashoffset: 0; stroke-linejoin: miter; stroke-miterlimit: 4; fill: rgb(255,255,255); fill-rule: nonzero; opacity: 1;"  points="6.72,6.72 -2.24,6.72 -2.24,2.24 -6.72,2.24 -6.72,-6.72 6.72,-6.72 " />
</g>
		<g transform="matrix(1 0 0 1 92.97 -21.68)" id="Capa_1"  >
<path style="stroke: none; stroke-width: 1; stroke-dasharray: none; stroke-linecap: butt; stroke-dashoffset: 0; stroke-linejoin: miter; stroke-miterlimit: 4; fill: rgb(255,255,255); fill-rule: nonzero; opacity: 1;"  transform=" translate(-338.73, -224.08)" d="M 343.213 280.208 h -8.962 v -16.036 h 8.962 V 280.208 z M 343.213 248.139 h -8.962 v -16.036 h 8.962 V 248.139 z M 343.213 216.068 h -8.962 v -16.036 h 8.962 V 216.068 z M 343.213 183.997 h -8.962 v -16.036 h 8.962 V 183.997 z" stroke-linecap="round" />
</g>
		<g transform="matrix(1 0 0 1 26.16 26.13)" id="Capa_1"  >
<rect style="stroke: none; stroke-width: 1; stroke-dasharray: none; stroke-linecap: butt; stroke-dashoffset: 0; stroke-linejoin: miter; stroke-miterlimit: 4; fill: rgb(34,34,34); fill-rule: nonzero; opacity: 1;"  x="-114.6445" y="-81.1215" rx="0" ry="0" width="229.289" height="162.243" />
</g>
		<g transform="matrix(1 0 0 1 26.18 26.16)" id="Capa_1"  >
<rect style="stroke: none; stroke-width: 1; stroke-dasharray: none; stroke-linecap: butt; stroke-dashoffset: 0; stroke-linejoin: miter; stroke-miterlimit: 4; fill: rgb(68,187,255); fill-rule: nonzero; opacity: 1;"  x="-101.202" y="-67.6785" rx="0" ry="0" width="202.404" height="135.357" />
</g>
		<g transform="matrix(1 0 0 1 1 47.86)" id="Capa_1"  >
<polygon style="stroke: none; stroke-width: 1; stroke-dasharray: none; stroke-linecap: butt; stroke-dashoffset: 0; stroke-linejoin: miter; stroke-miterlimit: 4; fill: rgb(252,212,98); fill-rule: nonzero; opacity: 1;"  points="-76.04,14.19 -15.88,-45.97 76.04,45.95 -76.04,45.97 " />
</g>
		<g transform="matrix(1 0 0 1 64.93 67.48)" id="Capa_1"  >
<polygon style="stroke: none; stroke-width: 1; stroke-dasharray: none; stroke-linecap: butt; stroke-dashoffset: 0; stroke-linejoin: miter; stroke-miterlimit: 4; fill: rgb(220,135,68); fill-rule: nonzero; opacity: 1;"  points="12.11,26.35 40.57,26.35 -40.57,-26.35 " />
</g>
		<g transform="matrix(1 0 0 1 75.86 35.75)" id="Capa_1"  >
<polygon style="stroke: none; stroke-width: 1; stroke-dasharray: none; stroke-linecap: butt; stroke-dashoffset: 0; stroke-linejoin: miter; stroke-miterlimit: 4; fill: rgb(246,195,88); fill-rule: nonzero; opacity: 1;"  points="51.5,-26.35 7.23,-58.08 -51.5,5.38 29.65,58.08 51.5,58.08 " />
</g>
		<g transform="matrix(1 0 0 1 -37.82 -13.93)" id="Capa_1"  >
<circle style="stroke: none; stroke-width: 1; stroke-dasharray: none; stroke-linecap: butt; stroke-dashoffset: 0; stroke-linejoin: miter; stroke-miterlimit: 4; fill: rgb(255,255,255); fill-rule: nonzero; opacity: 1;"  cx="0" cy="0" r="13.025" />
</g>
</g>
</g>
		<g transform="matrix(1 0 0 1 -109 0)" style="filter: url(#SVGID_6003);"  >
<filter id="SVGID_6003" y="-20%" height="140%" x="-20%" width="140%" >
	<feGaussianBlur in="SourceAlpha" stdDeviation="0"></feGaussianBlur>
	<feOffset dx="0" dy="0" result="oBlur" ></feOffset>
	<feFlood flood-color="rgb(0,0,0)" flood-opacity="1"/>
	<feComposite in2="oBlur" operator="in" />
	<feMerge>
		<feMergeNode></feMergeNode>
		<feMergeNode in="SourceGraphic"></feMergeNode>
	</feMerge>
</filter>
		<text xml:space="preserve" font-family="Open Sans" font-size="48" font-style="normal" font-weight="700" style="stroke: rgb(0,0,0); stroke-width: 0; stroke-dasharray: none; stroke-linecap: butt; stroke-dashoffset: 0; stroke-linejoin: round; stroke-miterlimit: 4; fill: rgb(0,0,0); fill-rule: nonzero; opacity: 1; white-space: pre;" paint-order="stroke"  ></text>
</g>
</g>
</g>
</svg>