<?xml version="1.0" encoding="UTF-8" standalone="no" ?>
<!DOCTYPE svg PUBLIC "-//W3C//DTD SVG 1.1//EN" "http://www.w3.org/Graphics/SVG/1.1/DTD/svg11.dtd">
<svg xmlns="http://www.w3.org/2000/svg" xmlns:xlink="http://www.w3.org/1999/xlink" version="1.1" width="300" height="300" viewBox="0 0 300 300" xml:space="preserve">
<desc>Sdelano: LOGOZA.RU</desc>
<defs>

                <style type="text/css">
                    @import url(http://fonts.googleapis.com/css?family=Open+Sans:100,100i,200,200i,300,300i,400,400i,500,500i,600,600i,700,700i,800,800i,900,900i)
                </style>
            
                <style type="text/css">
                    @import url(http://fonts.googleapis.com/css?family=Open+Sans:100,100i,200,200i,300,300i,400,400i,500,500i,600,600i,700,700i,800,800i,900,900i)
                </style>
            
</defs>
<!--<rect x="0" y="0" width="100%" height="100%" fill="#ffffff"></rect>-->
<g transform="matrix(1 0 0 1 150 150)"  >
<g style=""   >
		<g transform="matrix(0.51 0 0 0.51 0 0)"  >
<filter id="SVGID_7499" y="-20%" height="140%" x="-20%" width="140%" >
	<feGaussianBlur in="SourceAlpha" stdDeviation="0"></feGaussianBlur>
	<feOffset dx="0" dy="0" result="oBlur" ></feOffset>
	<feFlood flood-color="rgb(0,0,0)" flood-opacity="1"/>
	<feComposite in2="oBlur" operator="in" />
	<feMerge>
		<feMergeNode></feMergeNode>
		<feMergeNode in="SourceGraphic"></feMergeNode>
	</feMerge>
</filter>
<g style="filter: url(#SVGID_7499);"   >
		<g transform="matrix(1 0 0 1 0 0)" id="Capa_1"  >
<!--<circle style="stroke: none; stroke-width: 1; stroke-dasharray: none; stroke-linecap: butt; stroke-dashoffset: 0; stroke-linejoin: miter; stroke-miterlimit: 4; fill: rgb(254,198,6); fill-rule: nonzero; opacity: 1;"  cx="0" cy="0" r="245.76" />-->
</g>
		<g transform="matrix(1 0 0 1 0.02 -94.13)" id="Capa_1"  >
<rect style="stroke: none; stroke-width: 1; stroke-dasharray: none; stroke-linecap: butt; stroke-dashoffset: 0; stroke-linejoin: miter; stroke-miterlimit: 4; fill: rgb(0,0,0); fill-rule: nonzero; opacity: 1;"  x="-112.4555" y="-23.117" rx="0" ry="0" width="224.911" height="46.234" />
</g>
		<g transform="matrix(1 0 0 1 0 2.64)" id="Capa_1"  >
<path style="stroke: none; stroke-width: 1; stroke-dasharray: none; stroke-linecap: butt; stroke-dashoffset: 0; stroke-linejoin: miter; stroke-miterlimit: 4; fill: rgb(34,34,34); fill-rule: nonzero; opacity: 1;"  transform=" translate(-245.76, -248.4)" d="M 377.82 174.706 H 113.697 c -4.825 0 -8.737 3.912 -8.737 8.738 v 129.918 c 0 4.826 3.913 8.738 8.737 8.738 H 377.82 c 4.827 0 8.74 -3.912 8.74 -8.738 V 183.444 C 386.56 178.618 382.647 174.706 377.82 174.706 z" stroke-linecap="round" />
</g>
		<g transform="matrix(1 0 0 1 0 -105.6)" id="Capa_1"  >
<rect style="stroke: none; stroke-width: 1; stroke-dasharray: none; stroke-linecap: butt; stroke-dashoffset: 0; stroke-linejoin: miter; stroke-miterlimit: 4; fill: rgb(255,255,255); fill-rule: nonzero; opacity: 1;"  x="-99.84" y="-34.5525" rx="0" ry="0" width="199.68" height="69.105" />
</g>
		<g transform="matrix(1 0 0 1 0 39.61)" id="Capa_1"  >
<polygon style="stroke: none; stroke-width: 1; stroke-dasharray: none; stroke-linecap: butt; stroke-dashoffset: 0; stroke-linejoin: miter; stroke-miterlimit: 4; fill: rgb(0,0,0); fill-rule: nonzero; opacity: 1;"  points="-99.84,-36.73 -107.6,36.73 107.6,36.73 99.84,-36.73 " />
</g>
		<g transform="matrix(1 0 0 1 0 71.51)" id="Capa_1"  >
<rect style="stroke: none; stroke-width: 1; stroke-dasharray: none; stroke-linecap: butt; stroke-dashoffset: 0; stroke-linejoin: miter; stroke-miterlimit: 4; fill: rgb(255,255,255); fill-rule: nonzero; opacity: 1;"  x="-99.84" y="-68.6415" rx="0" ry="0" width="199.68" height="137.283" />
</g>
		<g transform="matrix(1 0 0 1 0 61.35)" id="Capa_1"  >
<rect style="stroke: none; stroke-width: 1; stroke-dasharray: none; stroke-linecap: butt; stroke-dashoffset: 0; stroke-linejoin: miter; stroke-miterlimit: 4; fill: rgb(23,159,222); fill-rule: nonzero; opacity: 1;"  x="-82.8725" y="-58.4805" rx="0" ry="0" width="165.745" height="116.961" />
</g>
		<g transform="matrix(1 0 0 1 -37.3 6.51)" id="Capa_1"  >
<path style="stroke: none; stroke-width: 1; stroke-dasharray: none; stroke-linecap: butt; stroke-dashoffset: 0; stroke-linejoin: miter; stroke-miterlimit: 4; fill: rgb(52,189,226); fill-rule: nonzero; opacity: 1;"  transform=" translate(-208.46, -252.27)" d="M 192.247 248.634 c 4.013 4.44 9.758 7.282 16.215 7.282 c 6.455 0 12.2 -2.842 16.212 -7.282 H 192.247 z" stroke-linecap="round" />
</g>
		<g transform="matrix(1 0 0 1 -37.3 4.2)" id="Capa_1"  >
<path style="stroke: none; stroke-width: 1; stroke-dasharray: none; stroke-linecap: butt; stroke-dashoffset: 0; stroke-linejoin: miter; stroke-miterlimit: 4; fill: rgb(76,195,237); fill-rule: nonzero; opacity: 1;"  transform=" translate(-208.46, -249.96)" d="M 199.328 248.634 c 2.657 1.66 5.77 2.661 9.135 2.661 c 3.363 0 6.475 -1 9.13 -2.661 H 199.328 z" stroke-linecap="round" />
</g>
		<g transform="matrix(1 0 0 1 -28.26 69.84)" id="Capa_1"  >
<polygon style="stroke: none; stroke-width: 1; stroke-dasharray: none; stroke-linecap: butt; stroke-dashoffset: 0; stroke-linejoin: miter; stroke-miterlimit: 4; fill: rgb(252,212,98); fill-rule: nonzero; opacity: 1;"  points="5.94,-50 -54.62,3.25 -54.62,50 32.15,50 54.62,50 18.31,-24.59 " />
</g>
		<g transform="matrix(1 0 0 1 24.82 82.54)" id="Capa_1"  >
<polygon style="stroke: none; stroke-width: 1; stroke-dasharray: none; stroke-linecap: butt; stroke-dashoffset: 0; stroke-linejoin: miter; stroke-miterlimit: 4; fill: rgb(220,135,68); fill-rule: nonzero; opacity: 1;"  points="1.54,37.29 34.77,37.29 -34.77,-37.29 " />
</g>
		<g transform="matrix(1 0 0 1 36.46 61.36)" id="Capa_1"  >
<polygon style="stroke: none; stroke-width: 1; stroke-dasharray: none; stroke-linecap: butt; stroke-dashoffset: 0; stroke-linejoin: miter; stroke-miterlimit: 4; fill: rgb(246,195,88); fill-rule: nonzero; opacity: 1;"  points="-11.7,-58.48 -46.41,-16.1 23.13,58.48 46.41,58.48 46.41,-35.69 23.43,-58.48 " />
</g>
		<g transform="matrix(1 0 0 1 -79.68 133.29)" id="Capa_1"  >
<rect style="stroke: none; stroke-width: 1; stroke-dasharray: none; stroke-linecap: butt; stroke-dashoffset: 0; stroke-linejoin: miter; stroke-miterlimit: 4; fill: rgb(23,159,222); fill-rule: nonzero; opacity: 1;"  x="-3.1925" y="-3.1925" rx="0" ry="0" width="6.385" height="6.385" />
</g>
		<g transform="matrix(1 0 0 1 -70.37 133.29)" id="Capa_1"  >
<rect style="stroke: none; stroke-width: 1; stroke-dasharray: none; stroke-linecap: butt; stroke-dashoffset: 0; stroke-linejoin: miter; stroke-miterlimit: 4; fill: rgb(227,0,14); fill-rule: nonzero; opacity: 1;"  x="-3.1925" y="-3.1925" rx="0" ry="0" width="6.385" height="6.385" />
</g>
		<g transform="matrix(1 0 0 1 -61.06 133.29)" id="Capa_1"  >
<rect style="stroke: none; stroke-width: 1; stroke-dasharray: none; stroke-linecap: butt; stroke-dashoffset: 0; stroke-linejoin: miter; stroke-miterlimit: 4; fill: rgb(252,212,98); fill-rule: nonzero; opacity: 1;"  x="-3.1925" y="-3.1925" rx="0" ry="0" width="6.385" height="6.385" />
</g>
		<g transform="matrix(1 0 0 1 -51.75 133.29)" id="Capa_1"  >
<rect style="stroke: none; stroke-width: 1; stroke-dasharray: none; stroke-linecap: butt; stroke-dashoffset: 0; stroke-linejoin: miter; stroke-miterlimit: 4; fill: rgb(100,121,138); fill-rule: nonzero; opacity: 1;"  x="-3.1925" y="-3.1925" rx="0" ry="0" width="6.385" height="6.385" />
</g>
		<g transform="matrix(1 0 0 1 -40.2 133.27)" id="Capa_1"  >
<path style="stroke: none; stroke-width: 1; stroke-dasharray: none; stroke-linecap: butt; stroke-dashoffset: 0; stroke-linejoin: miter; stroke-miterlimit: 4; fill: rgb(235,240,243); fill-rule: nonzero; opacity: 1;"  transform=" translate(-205.56, -379.03)" d="M 205.564 375.856 c -1.748 0 -3.168 1.423 -3.168 3.17 c 0 1.747 1.419 3.17 3.168 3.17 s 3.168 -1.423 3.168 -3.17 C 208.732 377.279 207.313 375.856 205.564 375.856 z M 205.564 380.819 c -0.99 0 -1.794 -0.803 -1.794 -1.794 c 0 -0.99 0.804 -1.794 1.794 -1.794 s 1.794 0.804 1.794 1.794 C 207.358 380.016 206.555 380.819 205.564 380.819 z" stroke-linecap="round" />
</g>
		<g transform="matrix(1 0 0 1 -29.35 133.27)" id="Capa_1"  >
<polygon style="stroke: none; stroke-width: 1; stroke-dasharray: none; stroke-linecap: butt; stroke-dashoffset: 0; stroke-linejoin: miter; stroke-miterlimit: 4; fill: rgb(225,230,233); fill-rule: nonzero; opacity: 1;"  points="3.17,-0.86 0.87,-0.86 0.87,-3.17 -0.87,-3.17 -0.87,-0.86 -3.17,-0.86 -3.17,0.86 -0.87,0.86 -0.87,3.17 0.87,3.17 0.87,0.86 3.17,0.86 " />
</g>
		<g transform="matrix(1 0 0 1 -0.01 5.35)" id="Capa_1"  >
<rect style="stroke: none; stroke-width: 1; stroke-dasharray: none; stroke-linecap: butt; stroke-dashoffset: 0; stroke-linejoin: miter; stroke-miterlimit: 4; fill: rgb(100,121,138); fill-rule: nonzero; opacity: 1;"  x="-116.526" y="-16.205" rx="0" ry="0" width="233.052" height="32.41" />
</g>
</g>
</g>
		<g transform="matrix(1 0 0 1 -109 0)" style="filter: url(#SVGID_7500);"  >
<filter id="SVGID_7500" y="-20%" height="140%" x="-20%" width="140%" >
	<feGaussianBlur in="SourceAlpha" stdDeviation="0"></feGaussianBlur>
	<feOffset dx="0" dy="0" result="oBlur" ></feOffset>
	<feFlood flood-color="rgb(0,0,0)" flood-opacity="1"/>
	<feComposite in2="oBlur" operator="in" />
	<feMerge>
		<feMergeNode></feMergeNode>
		<feMergeNode in="SourceGraphic"></feMergeNode>
	</feMerge>
</filter>
		<text xml:space="preserve" font-family="Open Sans" font-size="48" font-style="normal" font-weight="700" style="stroke: rgb(0,0,0); stroke-width: 0; stroke-dasharray: none; stroke-linecap: butt; stroke-dashoffset: 0; stroke-linejoin: round; stroke-miterlimit: 4; fill: rgb(0,0,0); fill-rule: nonzero; opacity: 1; white-space: pre;" paint-order="stroke"  ></text>
</g>
</g>
</g>
</svg>