<?xml version="1.0" encoding="UTF-8" standalone="no" ?>
<!DOCTYPE svg PUBLIC "-//W3C//DTD SVG 1.1//EN" "http://www.w3.org/Graphics/SVG/1.1/DTD/svg11.dtd">
<svg xmlns="http://www.w3.org/2000/svg" xmlns:xlink="http://www.w3.org/1999/xlink" version="1.1" width="300" height="300" viewBox="0 0 300 300" xml:space="preserve">
<desc>Sdelano: LOGOZA.RU</desc>
<defs>

                <style type="text/css">
                    @import url(http://fonts.googleapis.com/css?family=Open+Sans:100,100i,200,200i,300,300i,400,400i,500,500i,600,600i,700,700i,800,800i,900,900i)
                </style>
            
                <style type="text/css">
                    @import url(http://fonts.googleapis.com/css?family=Open+Sans:100,100i,200,200i,300,300i,400,400i,500,500i,600,600i,700,700i,800,800i,900,900i)
                </style>
            
</defs>
<!--<rect x="0" y="0" width="100%" height="100%" fill="#ffffff"></rect>-->
<g transform="matrix(1 0 0 1 150 150)"  >
<g style=""   >
		<g transform="matrix(0.51 0 0 0.51 0 0)"  >
<filter id="SVGID_8013" y="-20%" height="140%" x="-20%" width="140%" >
	<feGaussianBlur in="SourceAlpha" stdDeviation="0"></feGaussianBlur>
	<feOffset dx="0" dy="0" result="oBlur" ></feOffset>
	<feFlood flood-color="rgb(0,0,0)" flood-opacity="1"/>
	<feComposite in2="oBlur" operator="in" />
	<feMerge>
		<feMergeNode></feMergeNode>
		<feMergeNode in="SourceGraphic"></feMergeNode>
	</feMerge>
</filter>
<g style="filter: url(#SVGID_8013);"   >
		<g transform="matrix(1 0 0 1 0 0)" id="Capa_1"  >
<!--<circle style="stroke: none; stroke-width: 1; stroke-dasharray: none; stroke-linecap: butt; stroke-dashoffset: 0; stroke-linejoin: miter; stroke-miterlimit: 4; fill: rgb(254,198,6); fill-rule: nonzero; opacity: 1;"  cx="0" cy="0" r="245.76" />-->
</g>
		<g transform="matrix(1 0 0 1 0 0)" id="Capa_1"  >
<path style="stroke: none; stroke-width: 1; stroke-dasharray: none; stroke-linecap: butt; stroke-dashoffset: 0; stroke-linejoin: miter; stroke-miterlimit: 4; fill: rgb(17,17,17); fill-rule: nonzero; opacity: 1;"  transform=" translate(-245.76, -245.76)" d="M 321.684 104.96 H 169.839 c -3.483 0 -6.306 2.823 -6.306 6.305 v 268.989 c 0 3.483 2.824 6.306 6.306 6.306 h 151.845 c 3.48 0 6.303 -2.823 6.303 -6.306 V 111.265 C 327.987 107.783 325.164 104.96 321.684 104.96 z" stroke-linecap="round" />
</g>
		<g transform="matrix(1 0 0 1 0 -89.25)" id="Capa_1"  >
<path style="stroke: none; stroke-width: 1; stroke-dasharray: none; stroke-linecap: butt; stroke-dashoffset: 0; stroke-linejoin: miter; stroke-miterlimit: 4; fill: rgb(119,119,119); fill-rule: nonzero; opacity: 1;"  transform=" translate(-245.76, -156.51)" d="M 305.281 136.388 H 186.239 c -1.338 0 -2.422 1.084 -2.422 2.421 v 35.395 c 0 1.337 1.084 2.421 2.422 2.421 h 119.042 c 1.338 0 2.422 -1.084 2.422 -2.421 v -35.395 C 307.703 137.472 306.619 136.388 305.281 136.388 z" stroke-linecap="round" />
</g>
		<g transform="matrix(1 0 0 1 0 -32.6)" id="Capa_1"  >
<path style="stroke: none; stroke-width: 1; stroke-dasharray: none; stroke-linecap: butt; stroke-dashoffset: 0; stroke-linejoin: miter; stroke-miterlimit: 4; fill: rgb(119,119,119); fill-rule: nonzero; opacity: 1;"  transform=" translate(-245.76, -213.16)" d="M 305.281 193.037 H 186.239 c -1.338 0 -2.422 1.084 -2.422 2.421 v 35.395 c 0 1.337 1.084 2.421 2.422 2.421 h 119.042 c 1.338 0 2.422 -1.084 2.422 -2.421 v -35.395 C 307.703 194.121 306.619 193.037 305.281 193.037 z" stroke-linecap="round" />
</g>
		<g transform="matrix(1 0 0 1 0 16.89)" id="Capa_1"  >
<path style="stroke: none; stroke-width: 1; stroke-dasharray: none; stroke-linecap: butt; stroke-dashoffset: 0; stroke-linejoin: miter; stroke-miterlimit: 4; fill: rgb(119,119,119); fill-rule: nonzero; opacity: 1;"  transform=" translate(-245.76, -262.65)" d="M 251.955 272.97 v -14.444 c 0 -3.421 -2.775 -6.195 -6.195 -6.195 c -3.423 0 -6.195 2.774 -6.195 6.195 v 14.444 c 1.971 -0.613 4.024 -1.038 6.195 -1.038 S 249.984 272.357 251.955 272.97 z" stroke-linecap="round" />
</g>
		<g transform="matrix(1 0 0 1 0 96.54)" id="Capa_1"  >
<path style="stroke: none; stroke-width: 1; stroke-dasharray: none; stroke-linecap: butt; stroke-dashoffset: 0; stroke-linejoin: miter; stroke-miterlimit: 4; fill: rgb(119,119,119); fill-rule: nonzero; opacity: 1;"  transform=" translate(-245.76, -342.3)" d="M 239.565 313.004 v 52.39 c 0 3.422 2.772 6.195 6.195 6.195 c 3.42 0 6.195 -2.773 6.195 -6.195 v -52.39 c -1.971 0.612 -4.024 1.037 -6.195 1.037 S 241.536 313.616 239.565 313.004 z" stroke-linecap="round" />
</g>
		<g transform="matrix(1 0 0 1 0 47.21)" id="Capa_1"  >
<circle style="stroke: none; stroke-width: 1; stroke-dasharray: none; stroke-linecap: butt; stroke-dashoffset: 0; stroke-linejoin: miter; stroke-miterlimit: 4; fill: rgb(255,255,255); fill-rule: nonzero; opacity: 1;"  cx="0" cy="0" r="15.217" />
</g>
		<g transform="matrix(1 0 0 1 0 47.21)" id="Capa_1"  >
<circle style="stroke: none; stroke-width: 1; stroke-dasharray: none; stroke-linecap: butt; stroke-dashoffset: 0; stroke-linejoin: miter; stroke-miterlimit: 4; fill: rgb(119,119,119); fill-rule: nonzero; opacity: 1;"  cx="0" cy="0" r="6.164" />
</g>
		<g transform="matrix(1 0 0 1 0 73.73)" id="Capa_1"  >
<circle style="stroke: none; stroke-width: 1; stroke-dasharray: none; stroke-linecap: butt; stroke-dashoffset: 0; stroke-linejoin: miter; stroke-miterlimit: 4; fill: rgb(229,99,83); fill-rule: nonzero; opacity: 1;"  cx="0" cy="0" r="3.026" />
</g>
		<g transform="matrix(1 0 0 1 0 88.01)" id="Capa_1"  >
<circle style="stroke: none; stroke-width: 1; stroke-dasharray: none; stroke-linecap: butt; stroke-dashoffset: 0; stroke-linejoin: miter; stroke-miterlimit: 4; fill: rgb(68,196,161); fill-rule: nonzero; opacity: 1;"  cx="0" cy="0" r="3.026" />
</g>
</g>
</g>
		<g transform="matrix(1 0 0 1 -109 0)" style="filter: url(#SVGID_8014);"  >
<filter id="SVGID_8014" y="-20%" height="140%" x="-20%" width="140%" >
	<feGaussianBlur in="SourceAlpha" stdDeviation="0"></feGaussianBlur>
	<feOffset dx="0" dy="0" result="oBlur" ></feOffset>
	<feFlood flood-color="rgb(0,0,0)" flood-opacity="1"/>
	<feComposite in2="oBlur" operator="in" />
	<feMerge>
		<feMergeNode></feMergeNode>
		<feMergeNode in="SourceGraphic"></feMergeNode>
	</feMerge>
</filter>
		<text xml:space="preserve" font-family="Open Sans" font-size="48" font-style="normal" font-weight="700" style="stroke: rgb(0,0,0); stroke-width: 0; stroke-dasharray: none; stroke-linecap: butt; stroke-dashoffset: 0; stroke-linejoin: round; stroke-miterlimit: 4; fill: rgb(0,0,0); fill-rule: nonzero; opacity: 1; white-space: pre;" paint-order="stroke"  ></text>
</g>
</g>
</g>
</svg>