<?xml version="1.0" encoding="UTF-8" standalone="no" ?>
<!DOCTYPE svg PUBLIC "-//W3C//DTD SVG 1.1//EN" "http://www.w3.org/Graphics/SVG/1.1/DTD/svg11.dtd">
<svg xmlns="http://www.w3.org/2000/svg" xmlns:xlink="http://www.w3.org/1999/xlink" version="1.1" width="300" height="300" viewBox="0 0 300 300" xml:space="preserve">
<desc>Sdelano: LOGOZA.RU</desc>
<defs>

                <style type="text/css">
                    @import url(http://fonts.googleapis.com/css?family=Open+Sans:100,100i,200,200i,300,300i,400,400i,500,500i,600,600i,700,700i,800,800i,900,900i)
                </style>
            
                <style type="text/css">
                    @import url(http://fonts.googleapis.com/css?family=Open+Sans:100,100i,200,200i,300,300i,400,400i,500,500i,600,600i,700,700i,800,800i,900,900i)
                </style>
            
</defs>
<!--<rect x="0" y="0" width="100%" height="100%" fill="#ffffff"></rect>-->
<g transform="matrix(1 0 0 1 150 150)"  >
<g style=""   >
		<g transform="matrix(0.51 0 0 0.51 0 0)"  >
<filter id="SVGID_6898" y="-20%" height="140%" x="-20%" width="140%" >
	<feGaussianBlur in="SourceAlpha" stdDeviation="0"></feGaussianBlur>
	<feOffset dx="0" dy="0" result="oBlur" ></feOffset>
	<feFlood flood-color="rgb(0,0,0)" flood-opacity="1"/>
	<feComposite in2="oBlur" operator="in" />
	<feMerge>
		<feMergeNode></feMergeNode>
		<feMergeNode in="SourceGraphic"></feMergeNode>
	</feMerge>
</filter>
<g style="filter: url(#SVGID_6898);"   >
		<g transform="matrix(1 0 0 1 0 0)" id="Capa_1"  >
<!--<circle style="stroke: none; stroke-width: 1; stroke-dasharray: none; stroke-linecap: butt; stroke-dashoffset: 0; stroke-linejoin: miter; stroke-miterlimit: 4; fill: rgb(254,198,6); fill-rule: nonzero; opacity: 1;"  cx="0" cy="0" r="245.76" />-->
</g>
		<g transform="matrix(1 0 0 1 0 75.84)" id="Capa_1"  >
<path style="stroke: none; stroke-width: 1; stroke-dasharray: none; stroke-linecap: butt; stroke-dashoffset: 0; stroke-linejoin: miter; stroke-miterlimit: 4; fill: rgb(119,119,119); fill-rule: nonzero; opacity: 1;"  transform=" translate(-245.76, -321.6)" d="M 386.559 347.992 l -2.628 -0.053 l -20.633 -61.628 c -0.617 -1.845 -4.397 -3.326 -8.45 -3.326 H 136.674 c -4.052 0 -7.835 1.481 -8.453 3.326 l -20.54 61.351 l -2.722 -0.055 v 8.659 h 0.012 c 0.043 2.24 3.103 3.95 7.478 3.95 h 266.625 c 4.372 0 7.432 -1.71 7.475 -3.95 h 0.01 V 347.992 z" stroke-linecap="round" />
</g>
		<g transform="matrix(1 0 0 1 0 -44.07)" id="Capa_1"  >
<path style="stroke: none; stroke-width: 1; stroke-dasharray: none; stroke-linecap: butt; stroke-dashoffset: 0; stroke-linejoin: miter; stroke-miterlimit: 4; fill: rgb(17,17,17); fill-rule: nonzero; opacity: 1;"  transform=" translate(-245.76, -201.69)" d="M 354.849 131.303 H 136.674 c -4.053 0 -7.34 3.286 -7.34 7.34 v 126.1 c 0 4.054 3.287 7.339 7.34 7.339 h 218.174 c 4.053 0 7.337 -3.285 7.337 -7.339 v -126.1 C 362.186 134.589 358.902 131.303 354.849 131.303 z" stroke-linecap="round" />
</g>
		<g transform="matrix(1 0 0 1 0 67.31)" id="Capa_1"  >
<path style="stroke: none; stroke-width: 1; stroke-dasharray: none; stroke-linecap: butt; stroke-dashoffset: 0; stroke-linejoin: miter; stroke-miterlimit: 4; fill: rgb(255,255,255); fill-rule: nonzero; opacity: 1;"  transform=" translate(-245.76, -313.07)" d="M 354.849 274.451 H 136.674 c -4.053 0 -7.835 1.481 -8.453 3.326 l -23.114 69.041 c -0.894 2.673 2.388 4.864 7.341 4.864 h 266.626 c 4.953 0 8.234 -2.191 7.339 -4.864 L 363.3 277.777 C 362.682 275.933 358.902 274.451 354.849 274.451 z" stroke-linecap="round" />
</g>
		<g transform="matrix(1 0 0 1 0 51.72)" id="Capa_1"  >
<path style="stroke: none; stroke-width: 1; stroke-dasharray: none; stroke-linecap: butt; stroke-dashoffset: 0; stroke-linejoin: miter; stroke-miterlimit: 4; fill: rgb(119,119,119); fill-rule: nonzero; opacity: 1;"  transform=" translate(-245.76, -297.48)" d="M 350.221 280.623 H 141.302 c -0.158 0 -0.303 0.058 -0.324 0.13 l -9.89 33.421 c -0.026 0.086 0.093 0.156 0.266 0.156 h 228.815 c 0.173 0 0.292 -0.07 0.266 -0.156 l -9.89 -33.421 C 350.523 280.681 350.378 280.623 350.221 280.623 z" stroke-linecap="round" />
</g>
		<g transform="matrix(1 0 0 1 0 85.22)" id="Capa_1"  >
<path style="stroke: none; stroke-width: 1; stroke-dasharray: none; stroke-linecap: butt; stroke-dashoffset: 0; stroke-linejoin: miter; stroke-miterlimit: 4; fill: rgb(119,119,119); fill-rule: nonzero; opacity: 1;"  transform=" translate(-245.76, -330.98)" d="M 285.851 318.573 h -80.179 c -2.83 0 -5.259 1.164 -5.426 2.61 l -2.225 19.289 c -0.185 1.602 2.104 2.91 5.113 2.91 h 85.255 c 3.009 0 5.298 -1.308 5.113 -2.91 l -2.226 -19.289 C 291.11 319.737 288.681 318.573 285.851 318.573 z" stroke-linecap="round" />
</g>
		<g transform="matrix(1 0 0 1 0 27.52)" id="Capa_1"  >
<path style="stroke: none; stroke-width: 1; stroke-dasharray: none; stroke-linecap: butt; stroke-dashoffset: 0; stroke-linejoin: miter; stroke-miterlimit: 4; fill: rgb(0,0,0); fill-rule: nonzero; opacity: 1;"  transform=" translate(-245.76, -273.28)" d="M 338.502 268.073 H 153.019 c -0.33 0 -0.6 0.218 -0.6 0.486 v 9.437 c 0 0.268 0.27 0.486 0.6 0.486 h 185.483 c 0.33 0 0.6 -0.218 0.6 -0.486 v -9.437 C 339.102 268.291 338.832 268.073 338.502 268.073 z" stroke-linecap="round" />
</g>
		<g transform="matrix(1 0 0 1 0 -107.83)" id="Capa_1"  >
<circle style="stroke: none; stroke-width: 1; stroke-dasharray: none; stroke-linecap: butt; stroke-dashoffset: 0; stroke-linejoin: miter; stroke-miterlimit: 4; fill: rgb(0,0,0); fill-rule: nonzero; opacity: 1;"  cx="0" cy="0" r="3.031" />
</g>
		<g transform="matrix(1 0 0 1 0 -107.83)" id="Capa_1"  >
<circle style="stroke: none; stroke-width: 1; stroke-dasharray: none; stroke-linecap: butt; stroke-dashoffset: 0; stroke-linejoin: miter; stroke-miterlimit: 4; fill: rgb(0,0,0); fill-rule: nonzero; opacity: 1;"  cx="0" cy="0" r="1.393" />
</g>
		<g transform="matrix(1 0 0 1 0 -44.08)" id="Capa_1"  >
<rect style="stroke: none; stroke-width: 1; stroke-dasharray: none; stroke-linecap: butt; stroke-dashoffset: 0; stroke-linejoin: miter; stroke-miterlimit: 4; fill: rgb(255,255,255); fill-rule: nonzero; opacity: 1;"  x="-102.912" y="-56.883" rx="0" ry="0" width="205.824" height="113.766" />
</g>
		<g transform="matrix(1 0 0 1 0 -94.5)" id="Capa_1"  >
<rect style="stroke: none; stroke-width: 1; stroke-dasharray: none; stroke-linecap: butt; stroke-dashoffset: 0; stroke-linejoin: miter; stroke-miterlimit: 4; fill: rgb(0,0,0); fill-rule: nonzero; opacity: 1;"  x="-102.912" y="-6.464" rx="0" ry="0" width="205.824" height="12.928" />
</g>
		<g transform="matrix(1 0 0 1 70.42 -94.48)" id="Capa_1"  >
<circle style="stroke: none; stroke-width: 1; stroke-dasharray: none; stroke-linecap: butt; stroke-dashoffset: 0; stroke-linejoin: miter; stroke-miterlimit: 4; fill: rgb(252,212,98); fill-rule: nonzero; opacity: 1;"  cx="0" cy="0" r="3.615" />
</g>
		<g transform="matrix(1 0 0 1 81.87 -94.48)" id="Capa_1"  >
<circle style="stroke: none; stroke-width: 1; stroke-dasharray: none; stroke-linecap: butt; stroke-dashoffset: 0; stroke-linejoin: miter; stroke-miterlimit: 4; fill: rgb(68,196,161); fill-rule: nonzero; opacity: 1;"  cx="0" cy="0" r="3.615" />
</g>
		<g transform="matrix(1 0 0 1 93.34 -94.48)" id="Capa_1"  >
<circle style="stroke: none; stroke-width: 1; stroke-dasharray: none; stroke-linecap: butt; stroke-dashoffset: 0; stroke-linejoin: miter; stroke-miterlimit: 4; fill: rgb(229,99,83); fill-rule: nonzero; opacity: 1;"  cx="0" cy="0" r="3.615" />
</g>
		<g transform="matrix(1 0 0 1 0 10.56)" id="Capa_1"  >
<rect style="stroke: none; stroke-width: 1; stroke-dasharray: none; stroke-linecap: butt; stroke-dashoffset: 0; stroke-linejoin: miter; stroke-miterlimit: 4; fill: rgb(119,119,119); fill-rule: nonzero; opacity: 1;"  x="-102.912" y="-2.253" rx="0" ry="0" width="205.824" height="4.506" />
</g>
		<g transform="matrix(1 0 0 1 0.01 -71.4)" id="Capa_1"  >
<rect style="stroke: none; stroke-width: 1; stroke-dasharray: none; stroke-linecap: butt; stroke-dashoffset: 0; stroke-linejoin: miter; stroke-miterlimit: 4; fill: rgb(229,99,83); fill-rule: nonzero; opacity: 1;"  x="-85.77" y="-2.77" rx="0" ry="0" width="171.54" height="5.54" />
</g>
		<g transform="matrix(1 0 0 1 0.01 -6.14)" id="Capa_1"  >
<rect style="stroke: none; stroke-width: 1; stroke-dasharray: none; stroke-linecap: butt; stroke-dashoffset: 0; stroke-linejoin: miter; stroke-miterlimit: 4; fill: rgb(229,99,83); fill-rule: nonzero; opacity: 1;"  x="-85.77" y="-2.77" rx="0" ry="0" width="171.54" height="5.54" />
</g>
		<g transform="matrix(1 0 0 1 -68.1 -38.77)" id="Capa_1"  >
<path style="stroke: none; stroke-width: 1; stroke-dasharray: none; stroke-linecap: butt; stroke-dashoffset: 0; stroke-linejoin: miter; stroke-miterlimit: 4; fill: rgb(17,17,17); fill-rule: nonzero; opacity: 1;"  transform=" translate(-177.66, -206.99)" d="M 180.974 185.305 c 2.905 0 5.73 0.55 8.475 1.66 c 2.745 1.105 5.165 2.64 7.25 4.605 l -2.945 3.75 c -3.525 -3.605 -7.765 -5.41 -12.72 -5.41 c -4.875 0 -9.01 1.65 -12.41 4.95 c -3.4 3.295 -5.1 7.3 -5.1 12.01 c 0 4.71 1.71 8.715 5.13 12.01 c 3.42 3.3 7.545 4.945 12.38 4.945 c 4.83 0 9.07 -1.72 12.72 -5.16 l 3.01 3.38 c -4.71 4.425 -10.04 6.635 -15.975 6.635 c -6.185 0 -11.44 -2.11 -15.76 -6.33 c -4.32 -4.215 -6.48 -9.375 -6.48 -15.48 c 0 -6.02 2.18 -11.12 6.54 -15.3 C 169.454 187.395 174.744 185.305 180.974 185.305 z" stroke-linecap="round" />
</g>
		<g transform="matrix(1 0 0 1 -22.73 -38.77)" id="Capa_1"  >
<path style="stroke: none; stroke-width: 1; stroke-dasharray: none; stroke-linecap: butt; stroke-dashoffset: 0; stroke-linejoin: miter; stroke-miterlimit: 4; fill: rgb(17,17,17); fill-rule: nonzero; opacity: 1;"  transform=" translate(-223.03, -206.99)" d="M 223.059 185.305 c 6.27 0 11.585 2.09 15.945 6.265 c 4.36 4.18 6.545 9.3 6.545 15.36 c 0 6.065 -2.185 11.205 -6.545 15.42 c -4.36 4.22 -9.675 6.33 -15.945 6.33 c -6.305 0 -11.64 -2.11 -16.005 -6.33 c -4.36 -4.215 -6.54 -9.355 -6.54 -15.42 c 0 -6.06 2.18 -11.18 6.54 -15.36 C 211.419 187.395 216.754 185.305 223.059 185.305 z M 223.059 189.975 c -4.835 0 -8.97 1.65 -12.41 4.945 c -3.44 3.295 -5.16 7.3 -5.16 12.01 c 0 4.71 1.72 8.725 5.16 12.045 c 3.44 3.315 7.575 4.975 12.41 4.975 c 4.795 0 8.9 -1.66 12.32 -4.975 c 3.42 -3.32 5.13 -7.335 5.13 -12.045 c 0 -4.71 -1.71 -8.715 -5.13 -12.01 C 231.959 191.624 227.854 189.975 223.059 189.975 z" stroke-linecap="round" />
</g>
		<g transform="matrix(1 0 0 1 28.51 -38.83)" id="Capa_1"  >
<path style="stroke: none; stroke-width: 1; stroke-dasharray: none; stroke-linecap: butt; stroke-dashoffset: 0; stroke-linejoin: miter; stroke-miterlimit: 4; fill: rgb(17,17,17); fill-rule: nonzero; opacity: 1;"  transform=" translate(-274.27, -206.93)" d="M 254.519 185.424 h 17.385 c 6.265 0 11.52 2.06 15.76 6.175 c 4.24 4.12 6.36 9.23 6.36 15.33 c 0 6.105 -2.13 11.215 -6.39 15.33 c -4.26 4.115 -9.565 6.175 -15.915 6.175 h -17.2 V 185.424 z M 259.434 190.159 v 33.605 h 12.53 c 4.835 0 8.89 -1.595 12.165 -4.79 c 3.28 -3.195 4.915 -7.19 4.915 -11.985 c 0 -4.79 -1.67 -8.795 -5.005 -12.01 c -3.34 -3.215 -7.425 -4.82 -12.26 -4.82 H 259.434 z" stroke-linecap="round" />
</g>
		<g transform="matrix(1 0 0 1 72.22 -38.83)" id="Capa_1"  >
<path style="stroke: none; stroke-width: 1; stroke-dasharray: none; stroke-linecap: butt; stroke-dashoffset: 0; stroke-linejoin: miter; stroke-miterlimit: 4; fill: rgb(17,17,17); fill-rule: nonzero; opacity: 1;"  transform=" translate(-317.98, -206.93)" d="M 332.174 190.159 h -24.265 v 14.13 h 21.685 v 4.73 h -21.685 v 14.745 h 25.065 v 4.67 h -29.98 v -43.01 h 29.18 V 190.159 z" stroke-linecap="round" />
</g>
</g>
</g>
		<g transform="matrix(1 0 0 1 -109 0)" style="filter: url(#SVGID_6899);"  >
<filter id="SVGID_6899" y="-20%" height="140%" x="-20%" width="140%" >
	<feGaussianBlur in="SourceAlpha" stdDeviation="0"></feGaussianBlur>
	<feOffset dx="0" dy="0" result="oBlur" ></feOffset>
	<feFlood flood-color="rgb(0,0,0)" flood-opacity="1"/>
	<feComposite in2="oBlur" operator="in" />
	<feMerge>
		<feMergeNode></feMergeNode>
		<feMergeNode in="SourceGraphic"></feMergeNode>
	</feMerge>
</filter>
		<text xml:space="preserve" font-family="Open Sans" font-size="48" font-style="normal" font-weight="700" style="stroke: rgb(0,0,0); stroke-width: 0; stroke-dasharray: none; stroke-linecap: butt; stroke-dashoffset: 0; stroke-linejoin: round; stroke-miterlimit: 4; fill: rgb(0,0,0); fill-rule: nonzero; opacity: 1; white-space: pre;" paint-order="stroke"  ></text>
</g>
</g>
</g>
</svg>